<?xml version="1.0" encoding="UTF-8" standalone="no"?>
<!DOCTYPE svg PUBLIC "-//W3C//DTD SVG 1.1//EN" "http://www.w3.org/Graphics/SVG/1.1/DTD/svg11.dtd">
<svg xmlns="http://www.w3.org/2000/svg" xmlns:xlink="http://www.w3.org/1999/xlink" version="1.1"
	width="300" height="300" viewBox="0 0 300 300" xml:space="preserve">

<defs>
</defs>
<g transform="matrix(1 0 0 1 150 150)" id="f8feeeab-de03-4ff9-8d68-225d2c78dabe"  >
<rect style="stroke: none; stroke-width: 1; stroke-dasharray: none; stroke-linecap: butt; stroke-dashoffset: 0; stroke-linejoin: miter; stroke-miterlimit: 4; fill: rgb(255,255,255); fill-rule: nonzero; opacity: 1; visibility: hidden;" vector-effect="non-scaling-stroke"  x="-150" y="-150" rx="0" ry="0" width="300" height="300" />
</g>
<g transform="matrix(0 0 0 0 0 0)" id="4ae2a0f0-3ea9-4129-82cb-1f72b32897c4"  >
</g>
<g transform="matrix(0.85 0 0 0.92 151.67 242.33)" style="" id="headerText.accent"  >
		<text xml:space="preserve" font-family="Fira Mono" font-size="56" font-style="normal" font-weight="700" style="stroke: none; stroke-width: 1; stroke-dasharray: none; stroke-linecap: butt; stroke-dashoffset: 0; stroke-linejoin: miter; stroke-miterlimit: 4; fill: rgb(245,245,245); fill-rule: evenodd; opacity: 1; white-space: pre;" ><tspan x="-156.32" y="17.59" >A</tspan><tspan x="-108.88" y="17.59" >U</tspan><tspan x="-61.44" y="17.59" >T</tspan><tspan x="-17.09" y="17.59" >H</tspan><tspan x="33.47" y="17.59" >A</tspan><tspan x="80.91" y="17.59" >P</tspan><tspan x="122.12" y="17.59" >P</tspan></text>
</g>
<g transform="matrix(0.85 0 0 0.92 109.94 68.57)" id="shape.accent"  >
<polygon style="stroke: none; stroke-width: 1; stroke-dasharray: none; stroke-linecap: butt; stroke-dashoffset: 0; stroke-linejoin: miter; stroke-miterlimit: 4; fill: rgb(245,245,245); fill-rule: evenodd; opacity: 1;" vector-effect="non-scaling-stroke"  points="-47.94,11.84 -48.39,44.14 47.95,-11.85 48.39,-44.14 " />
</g>
<g transform="matrix(0.85 0 0 0.92 109.94 118.21)" id="shape.accent"  >
<polygon style="stroke: none; stroke-width: 1; stroke-dasharray: none; stroke-linecap: butt; stroke-dashoffset: 0; stroke-linejoin: miter; stroke-miterlimit: 4; fill: rgb(245,245,245); fill-rule: evenodd; opacity: 1;" vector-effect="non-scaling-stroke"  points="-47.94,11.85 -48.39,44.14 47.95,-11.85 48.39,-44.14 " />
</g>
<g transform="matrix(0.85 0 0 0.92 191.89 169.16)" id="shape.accent"  >
<polygon style="stroke: none; stroke-width: 1; stroke-dasharray: none; stroke-linecap: butt; stroke-dashoffset: 0; stroke-linejoin: miter; stroke-miterlimit: 4; fill: rgb(245,245,245); fill-rule: evenodd; opacity: 1;" vector-effect="non-scaling-stroke"  points="-47.95,11.85 -48.38,44.14 47.94,-11.84 48.38,-44.14 " />
</g>
<g transform="matrix(0.85 0 0 0.92 191.89 119.51)" id="shape.accent"  >
<polygon style="stroke: none; stroke-width: 1; stroke-dasharray: none; stroke-linecap: butt; stroke-dashoffset: 0; stroke-linejoin: miter; stroke-miterlimit: 4; fill: rgb(245,245,245); fill-rule: evenodd; opacity: 1;" vector-effect="non-scaling-stroke"  points="-47.95,11.84 -48.38,44.14 47.94,-11.85 48.38,-44.14 " />
</g>
<g transform="matrix(0.85 0 0 0.92 110.2 119.51)" id="shape.accent"  >
<polygon style="stroke: none; stroke-width: 1; stroke-dasharray: none; stroke-linecap: butt; stroke-dashoffset: 0; stroke-linejoin: miter; stroke-miterlimit: 4; fill: rgb(245,245,245); fill-opacity: 0.7; fill-rule: evenodd; opacity: 1;" vector-effect="non-scaling-stroke"  points="-48.7,-11.85 48.27,44.14 48.7,11.84 -48.26,-44.14 " />
</g>
<g transform="matrix(0.85 0 0 0.92 191.63 68.57)" id="shape.accent"  >
<polygon style="stroke: none; stroke-width: 1; stroke-dasharray: none; stroke-linecap: butt; stroke-dashoffset: 0; stroke-linejoin: miter; stroke-miterlimit: 4; fill: rgb(245,245,245); fill-opacity: 0.7; fill-rule: evenodd; opacity: 1;" vector-effect="non-scaling-stroke"  points="-48.7,-11.85 48.26,44.14 48.7,11.84 -48.26,-44.14 " />
</g>
<g transform="matrix(0.85 0 0 0.92 191.63 118.21)" id="shape.accent"  >
<polygon style="stroke: none; stroke-width: 1; stroke-dasharray: none; stroke-linecap: butt; stroke-dashoffset: 0; stroke-linejoin: miter; stroke-miterlimit: 4; fill: rgb(245,245,245); fill-opacity: 0.7; fill-rule: evenodd; opacity: 1;" vector-effect="non-scaling-stroke"  points="-48.7,-11.85 48.26,44.14 48.7,11.85 -48.26,-44.14 " />
</g>
<g transform="matrix(0.85 0 0 0.92 110.2 169.16)" id="shape.accent"  >
<polygon style="stroke: none; stroke-width: 1; stroke-dasharray: none; stroke-linecap: butt; stroke-dashoffset: 0; stroke-linejoin: miter; stroke-miterlimit: 4; fill: rgb(245,245,245); fill-opacity: 0.7; fill-rule: evenodd; opacity: 1;" vector-effect="non-scaling-stroke"  points="-48.7,-11.84 48.27,44.14 48.7,11.85 -48.26,-44.14 " />
</g>
</svg>